<?xml version="1.0" encoding="utf-8"?>
<svg version="1.1" xmlns:xlink="http://www.w3.org/1999/xlink" width="15px" height="16px" xmlns="http://www.w3.org/2000/svg">
  <g transform="matrix(1 0 0 1 -299 -124 )">
    <path d="M 306.5 125  C 310.14 125  313 128.08  313 132  C 313 135.92  310.14 139  306.5 139  C 302.86 139  300 135.92  300 132  C 300 128.08  302.86 125  306.5 125  Z " fill-rule="nonzero" fill="#1488ba" stroke="none" />
    <path d="M 306.5 125  C 310.14 125  313 128.08  313 132  C 313 135.92  310.14 139  306.5 139  C 302.86 139  300 135.92  300 132  C 300 128.08  302.86 125  306.5 125  Z " stroke-width="2" stroke="#ffffff" fill="none" />
  </g>
</svg>